<?xml version="1.0" encoding="UTF-8" standalone="no" ?>
<!DOCTYPE svg PUBLIC "-//W3C//DTD SVG 1.1//EN" "http://www.w3.org/Graphics/SVG/1.1/DTD/svg11.dtd">
<svg xmlns="http://www.w3.org/2000/svg" xmlns:xlink="http://www.w3.org/1999/xlink" version="1.1" width="1080" height="1080" viewBox="0 0 1080 1080" xml:space="preserve">
<desc>Created with Fabric.js 5.2.4</desc>
<defs>
</defs>
<g transform="matrix(1 0 0 1 540 540)" id="b27ce918-96b1-40fe-a406-35e563a1a54b"  >
<rect style="stroke: none; stroke-width: 1; stroke-dasharray: none; stroke-linecap: butt; stroke-dashoffset: 0; stroke-linejoin: miter; stroke-miterlimit: 4; fill: rgb(255,255,255); fill-rule: nonzero; opacity: 1; visibility: hidden;" vector-effect="non-scaling-stroke"  x="-540" y="-540" rx="0" ry="0" width="1080" height="1080" />
</g>
<g transform="matrix(1 0 0 1 540 540)" id="c1f112a6-403e-45f9-83b0-b95627a38e39"  >
</g>
<g transform="matrix(1 0 0 1 540 540)" id="path1368"  >
<path style="stroke: rgb(0,0,0); stroke-width: 0; stroke-dasharray: none; stroke-linecap: butt; stroke-dashoffset: 0; stroke-linejoin: miter; stroke-miterlimit: 4; fill: rgb(255,255,255); fill-rule: nonzero; opacity: 1;" vector-effect="non-scaling-stroke"  transform=" translate(-375.68, -429.49)" d="M 267.13 700.02 C 266.67 698.8 264.28 698.52 254.53 698.52 C 247.91 698.52 242.5 698.29 242.5 698.01 C 242.5 697.72 245.74 693.34 249.7 688.26 C 262.69 671.62 276.5 652.1899999999999 276.5 650.56 C 276.5 649.68 278.75 645.8399999999999 281.5 642.02 C 286.88 634.54 287.3 633.52 285 633.52 C 282.44 633.52 283.34 631.97 286.86 630.29 C 289.48 629.04 292.43 625.1899999999999 300.36 612.65 C 305.93 603.8199999999999 310.5 596.36 310.5 596.06 C 310.5 595.77 309.57 595.52 308.44 595.52 C 305.6 595.52 306.84 593.91 310.23 593.1899999999999 C 312.39000000000004 592.7299999999999 314.51 590.29 319.95000000000005 581.9599999999999 C 326.75000000000006 571.55 331.04 567.0799999999999 334.9200000000001 566.3699999999999 C 338.05000000000007 565.7999999999998 337.2700000000001 564.0499999999998 333.75000000000006 563.7099999999999 C 330.26000000000005 563.3699999999999 329.77000000000004 562.6399999999999 331.74000000000007 560.68 C 332.7300000000001 559.6899999999999 332.68000000000006 559.25 331.49000000000007 558.52 C 330.2200000000001 557.74 330.30000000000007 557.38 332.00000000000006 556.09 C 333.4100000000001 555.0300000000001 333.57000000000005 554.58 332.56000000000006 554.5500000000001 C 331.77000000000004 554.5400000000001 330.14000000000004 555.45 328.93000000000006 556.58 L 326.74000000000007 558.64 L 329.0400000000001 545.83 C 333.99000000000007 518.2800000000001 334.5200000000001 516.45 338.80000000000007 511.81000000000006 C 341.50000000000006 508.88000000000005 342.30000000000007 507.4200000000001 341.36000000000007 507.12000000000006 C 340.61000000000007 506.89000000000004 335.50000000000006 505.70000000000005 330.00000000000006 504.49000000000007 C 324.50000000000006 503.27000000000004 315.95000000000005 500.82000000000005 311.00000000000006 499.0400000000001 C 306.05000000000007 497.2700000000001 299.9700000000001 495.0900000000001 297.50000000000006 494.2100000000001 C 294.9200000000001 493.2900000000001 280.37000000000006 491.3200000000001 263.50000000000006 489.61000000000007 C 228.41000000000005 486.0400000000001 216.80000000000007 483.63000000000005 169.09000000000006 469.9800000000001 L 136.19000000000005 460.57000000000005 L 99.96500000000006 489.55000000000007 C 59.08300000000006 522.24 63.433000000000064 519.98 47.80400000000006 516.73 L 39.61200000000006 515.02 L 60.04800000000006 478.57 C 71.28900000000006 458.52 80.15000000000006 441.8 79.74100000000006 441.42 C 79.33100000000006 441.04 73.35000000000005 438.42 66.45000000000006 435.6 L 53.90400000000006 430.47 L 54.29600000000006 427.11 L 54.688000000000066 423.75 L 68.09600000000006 423.03 C 75.47100000000006 422.64 81.74500000000006 421.92999999999995 82.03800000000007 421.45 C 82.33100000000007 420.97999999999996 75.76600000000006 399.15999999999997 67.45000000000007 372.96999999999997 C 59.133000000000074 346.78 52.520000000000074 325.15999999999997 52.754000000000076 324.92999999999995 C 52.98800000000008 324.69999999999993 57.413000000000075 324.94999999999993 62.58800000000008 325.49999999999994 C 67.76200000000009 326.03999999999996 72.93400000000008 326.48999999999995 74.07900000000008 326.49999999999994 C 75.67600000000007 326.5199999999999 81.14400000000008 333.7099999999999 97.48100000000008 357.2699999999999 C 109.21000000000008 374.17999999999995 119.86000000000008 389.4599999999999 121.16000000000008 391.2199999999999 C 122.46000000000008 392.9799999999999 131.2100000000001 399.88999999999993 140.60000000000008 406.56999999999994 L 157.67000000000007 418.7099999999999 L 183.33000000000007 419.62999999999994 C 211.95000000000007 420.6599999999999 227.70000000000007 421.9699999999999 273.0200000000001 427.0799999999999 C 302.4800000000001 430.4099999999999 342.7300000000001 434.4099999999999 343.2200000000001 434.05999999999995 C 343.3500000000001 433.96999999999997 343.8800000000001 426.35999999999996 344.4000000000001 417.1499999999999 C 344.9500000000001 407.37999999999994 345.8300000000001 399.81999999999994 346.5000000000001 399.00999999999993 C 347.6200000000001 397.66999999999996 351.0600000000001 396.3499999999999 356.7500000000001 395.0899999999999 C 360.1800000000001 394.3299999999999 360.3600000000001 392.5199999999999 357.0000000000001 392.5199999999999 C 354.5000000000001 392.5199999999999 354.5000000000001 392.48999999999995 354.5000000000001 382.92999999999995 C 354.5000000000001 374.34999999999997 354.3000000000001 373.28 352.60000000000014 372.84 C 351.1200000000001 372.45 350.1100000000001 370 348.0500000000001 361.67999999999995 C 343.2400000000001 342.35999999999996 343.8800000000001 343.81999999999994 339.96000000000015 343.0799999999999 C 336.04000000000013 342.3499999999999 336.19000000000017 340.5199999999999 340.16000000000014 340.5199999999999 C 342.3000000000001 340.5199999999999 342.63000000000017 340.1499999999999 342.1900000000001 338.2699999999999 C 341.9000000000001 337.0299999999999 339.04000000000013 324.5799999999999 335.8400000000001 310.5999999999999 L 330.0200000000001 285.1699999999999 L 326.2700000000001 283.5999999999999 C 321.7400000000001 281.6899999999999 321.4400000000001 280.5199999999999 325.5000000000001 280.5199999999999 C 327.1500000000001 280.5199999999999 328.5000000000001 280.23999999999995 328.5000000000001 279.8999999999999 C 328.5000000000001 279.5499999999999 326.6300000000001 271.37999999999994 324.35000000000014 261.7399999999999 C 320.54000000000013 245.6799999999999 320.33000000000015 244.1099999999999 321.85000000000014 243.0099999999999 C 323.6900000000001 241.6599999999999 324.03000000000014 238.9699999999999 322.48000000000013 238.0099999999999 C 321.92000000000013 237.6699999999999 321.70000000000016 237.0099999999999 321.98000000000013 236.5499999999999 C 322.48000000000013 235.7399999999999 315.33000000000015 211.68999999999988 303.8800000000001 175.6699999999999 C 300.8400000000001 166.1299999999999 298.5000000000001 158.1999999999999 298.6800000000001 158.0399999999999 C 299.35000000000014 157.4399999999999 322.9900000000001 166.49999999999991 323.3200000000001 167.4799999999999 C 323.5100000000001 168.0499999999999 324.2100000000001 168.5199999999999 324.8800000000001 168.5199999999999 C 325.5500000000001 168.5199999999999 327.0600000000001 170.4999999999999 328.23000000000013 172.90999999999988 C 330.8600000000001 178.31999999999988 368.45000000000016 247.31999999999988 412.1800000000001 327.01999999999987 C 430.29000000000013 360.01999999999987 445.41000000000014 387.8099999999999 445.7700000000001 388.76999999999987 C 446.6400000000001 391.0699999999999 452.7400000000001 391.1399999999999 454.61000000000007 388.8799999999999 C 455.80000000000007 387.4499999999999 457.61000000000007 387.3199999999999 468.5300000000001 387.8699999999999 C 486.80000000000007 388.7999999999999 497.11000000000007 390.32999999999987 504.7600000000001 393.2599999999999 C 509.8400000000001 395.1999999999999 511.4100000000001 396.2499999999999 511.0500000000001 397.4399999999999 C 510.79000000000013 398.3099999999999 509.6400000000001 404.64999999999986 508.5000000000001 411.51999999999987 C 507.35000000000014 418.39999999999986 506.1800000000001 424.8099999999999 505.8900000000001 425.76999999999987 C 504.9800000000001 428.76999999999987 491.0700000000001 428.02999999999986 470.5900000000001 423.89999999999986 C 467.4100000000001 423.2599999999999 467.2200000000001 423.35999999999984 467.7700000000001 425.46999999999986 C 468.9100000000001 429.8199999999999 481.0100000000001 449.79999999999984 482.9900000000001 450.59999999999985 C 484.09000000000015 451.04999999999984 505.92000000000013 453.70999999999987 531.5000000000001 456.5099999999999 C 610.5500000000001 465.1899999999999 624.7500000000001 467.4899999999999 651.5100000000001 476.0099999999999 C 674.5100000000001 483.33999999999986 700.7600000000001 497.6199999999999 709.0900000000001 507.3599999999999 C 711.9800000000001 510.7399999999999 712.2200000000001 511.4499999999999 711.1800000000002 513.5999999999999 C 708.6400000000002 518.8199999999999 691.0800000000002 525.31 670.5000000000002 528.6499999999999 C 660.7000000000003 530.2399999999999 610.4200000000002 530.2299999999999 596.5000000000002 528.6299999999999 C 590.7200000000003 527.9699999999999 567.3200000000003 525.1599999999999 544.5000000000002 522.3799999999999 C 500.6600000000002 517.0499999999998 487.93000000000023 516.5399999999998 477.81000000000023 519.7399999999999 C 472.47000000000025 521.4199999999998 472.0700000000002 521.8699999999999 473.68000000000023 524.4499999999999 C 474.86000000000024 526.3599999999999 474.7000000000002 526.81 472.0000000000002 528.93 C 463.72000000000025 535.43 433.8900000000002 560.9799999999999 433.2000000000002 562.16 C 432.5400000000002 563.28 434.5800000000002 564.3199999999999 444.3400000000002 563.52 C 454.31000000000023 562.6999999999999 474.2000000000002 565.67 477.2800000000002 566.56 C 485.7500000000002 568.9899999999999 486.4800000000002 568.38 484.9400000000002 580.04 C 484.2200000000002 585.53 483.12000000000023 592.3199999999999 482.5100000000002 595.13 C 481.5000000000002 599.6 477.9400000000002 600.45 472.7500000000002 600.79 C 464.30000000000024 601.31 448.2000000000002 599.67 442.0000000000002 597.64 C 440.35000000000025 597.1 436.3900000000002 595.93 433.2100000000002 595.05 C 428.8200000000002 593.8299999999999 427.2000000000002 592.8599999999999 426.5100000000002 591.05 C 425.8400000000002 589.3 424.0900000000002 588.18 420.05000000000024 586.91 C 416.99000000000024 585.9399999999999 414.5000000000002 584.62 414.5000000000002 583.9599999999999 C 414.5000000000002 583.2999999999998 413.85000000000025 582.2299999999999 413.06000000000023 581.5799999999999 C 411.8900000000002 580.6099999999999 409.1900000000002 582.56 398.31000000000023 592.27 C 380.1500000000002 608.46 273.04000000000025 698.27 268.85000000000025 700.8199999999999 C 268.22000000000025 701.1999999999999 267.4500000000003 700.8399999999999 267.1300000000002 700.02 z" stroke-linecap="round" />
</g>
</svg>